<svg fill="#000000" xmlns="http://www.w3.org/2000/svg"  viewBox="0 0 50 50" width="50px" height="50px"><path d="M 12 1 C 11.476563 1 10.941406 1.183594 10.5625 1.5625 C 10.183594 1.941406 10 2.476563 10 3 L 10 47 C 10 47.523438 10.183594 48.058594 10.5625 48.4375 C 10.941406 48.816406 11.476563 49 12 49 L 38 49 C 38.523438 49 39.058594 48.816406 39.4375 48.4375 C 39.816406 48.058594 40 47.523438 40 47 L 40 3 C 40 2.476563 39.816406 1.941406 39.4375 1.5625 C 39.058594 1.183594 38.523438 1 38 1 Z M 12 3 L 38 3 L 38 47 L 12 47 Z M 14 5 L 14 29 L 36 29 L 36 5 Z M 16 7 L 34 7 L 34 27 L 16 27 Z M 25 30 C 23.894531 30 23 30.894531 23 32 C 23 33.105469 23.894531 34 25 34 C 26.105469 34 27 33.105469 27 32 C 27 30.894531 26.105469 30 25 30 Z M 18 35 C 15.789063 35 14 36.789063 14 39 L 14 41 C 14 43.210938 15.789063 45 18 45 L 32 45 C 34.210938 45 36 43.210938 36 41 L 36 39 C 36 36.789063 34.210938 35 32 35 Z M 18 37 L 20 37 L 20 39 L 16 39 C 16 37.808594 16.808594 37 18 37 Z M 22 37 L 28 37 L 28 39 L 22 39 Z M 30 37 L 32 37 C 33.191406 37 34 37.808594 34 39 L 30 39 Z M 16 41 L 20 41 L 20 43 L 18 43 C 16.808594 43 16 42.191406 16 41 Z M 22 41 L 28 41 L 28 43 L 22 43 Z M 30 41 L 34 41 C 34 42.191406 33.191406 43 32 43 L 30 43 Z"/></svg>