<?xml version="1.0" encoding="UTF-8"?>
<svg xmlns="http://www.w3.org/2000/svg" xmlns:xlink="http://www.w3.org/1999/xlink" viewBox="0 0 64 64" width="64px" height="64px">
<g id="surface50673220">
<rect x="0" y="0" width="64" height="64" style="fill:rgb(20.392157%,59.607846%,85.882354%);fill-opacity:1;stroke:none;"/>
<path style=" stroke:none;fill-rule:nonzero;fill:rgb(52.156866%,79.607844%,97.254902%);fill-opacity:1;" d="M 32 4 C 22.074219 4 19 8.710938 19 11.765625 L 19 17 L 32 17 L 32 21 L 11.765625 21 C 7.816406 21 4 23.855469 4 32 C 4 40.144531 7.816406 43 11.765625 43 L 19.273438 43 L 19.273438 37.089844 C 19.273438 34.289062 21.5625 32 24.363281 32 L 39.636719 32 C 42.4375 32 45 29.710938 45 26.910156 L 45 11.765625 C 45 8.582031 41.925781 4 32 4 Z M 32 4 "/>
<path style=" stroke:none;fill-rule:nonzero;fill:rgb(97.647059%,86.666667%,56.078434%);fill-opacity:1;" d="M 32 60 C 41.925781 60 44.726562 55.289062 44.726562 52.234375 L 44.726562 47 L 32 47 L 32 43 L 52.234375 43 C 56.183594 43 60 40.144531 60 32 C 60 23.855469 56.183594 21 52.234375 21 L 45 21 L 45 26.910156 C 45 29.710938 42.4375 32 39.636719 32 L 24.363281 32 C 21.5625 32 19 34.289062 19 37.089844 L 19 52.234375 C 19 55.289062 22.074219 60 32 60 Z M 32 60 "/>
<path style=" stroke:none;fill-rule:nonzero;fill:rgb(55.29412%,42.352942%,61.960787%);fill-opacity:1;" d="M 26.5 9 C 25.121094 9 24 10.121094 24 11.5 C 24 12.878906 25.121094 14 26.5 14 C 27.878906 14 29 12.878906 29 11.5 C 29 10.121094 27.878906 9 26.5 9 Z M 38.5 50 C 37.121094 50 36 51.121094 36 52.5 C 36 53.878906 37.121094 55 38.5 55 C 39.878906 55 41 53.878906 41 52.5 C 41 51.121094 39.878906 50 38.5 50 Z M 38.5 50 "/>
<path style=" stroke:none;fill-rule:nonzero;fill:rgb(67.450982%,89.019608%,100%);fill-opacity:1;" d="M 4 32 C 4 40.144531 7.816406 43 11.765625 43 L 18.0625 43 C 18.0625 40.238281 15.824219 38 13.0625 38 L 11.765625 38 C 9.726562 38 9 34.898438 9 32 C 9 29.101562 9.726562 26 11.753906 26 L 28.035156 26.03125 C 28.039062 26.03125 28.042969 26.03125 28.046875 26.03125 C 30.804688 26.03125 33.042969 23.800781 33.046875 21.039062 C 33.046875 21.027344 33.042969 21.015625 33.042969 21 L 11.765625 21 C 7.816406 21 4 23.855469 4 32 Z M 4 32 "/>
<path style=" stroke:none;fill-rule:nonzero;fill:rgb(93.725491%,78.431374%,55.686277%);fill-opacity:1;" d="M 60.046875 32 C 60.046875 23.855469 56.230469 21 52.28125 21 L 45.984375 21 C 45.984375 23.761719 48.222656 26 50.984375 26 L 52.28125 26 C 54.320312 26 55.046875 29.101562 55.046875 32 C 55.046875 34.898438 54.320312 38 52.292969 38 L 36.011719 37.96875 C 36.007812 37.96875 36.003906 37.96875 36 37.96875 C 33.242188 37.96875 31.003906 40.199219 31 42.960938 C 31 42.972656 31.003906 42.984375 31.003906 43 L 52.28125 43 C 56.230469 43 60.046875 40.144531 60.046875 32 Z M 60.046875 32 "/>
<path style=" stroke:none;fill-rule:nonzero;fill:rgb(55.29412%,42.352942%,62.352943%);fill-opacity:1;" d="M 20 44 L 11.765625 44 C 9.707031 44 3 43.136719 3 32 C 3 20.863281 9.707031 20 11.765625 20 L 31 20 L 31 18 L 18 18 L 18 11.765625 C 18 8.730469 20.925781 3 32 3 C 43.050781 3 46 8.507812 46 11.765625 L 46 26.910156 C 46 30.210938 43.085938 33 39.636719 33 L 24.363281 33 C 22.039062 33 20 34.910156 20 37.089844 Z M 11.765625 22 C 7.464844 22 5 25.644531 5 32 C 5 38.355469 7.464844 42 11.765625 42 L 18 42 L 18 37.089844 C 18 33.789062 20.914062 31 24.363281 31 L 39.636719 31 C 41.960938 31 44 29.089844 44 26.910156 L 44 11.765625 C 44 9.25 41.472656 5 32 5 C 22.507812 5 20 9.425781 20 11.765625 L 20 16 L 33 16 L 33 22 Z M 11.765625 22 "/>
<path style=" stroke:none;fill-rule:nonzero;fill:rgb(55.29412%,42.352942%,61.960787%);fill-opacity:1;" d="M 32 61 C 20.925781 61 18 55.269531 18 52.234375 L 18 37.089844 C 18 33.789062 20.914062 31 24.363281 31 L 39.636719 31 C 41.960938 31 44 29.089844 44 26.910156 L 44 20 L 52.234375 20 C 54.292969 20 61 20.863281 61 32 C 61 43.136719 54.292969 44 52.234375 44 L 33 44 L 33 46 L 46 46 L 46 52.234375 C 46 55.269531 43.074219 61 32 61 Z M 24.363281 33 C 22.039062 33 20 34.910156 20 37.089844 L 20 52.238281 C 20 54.574219 22.507812 59 32 59 C 41.492188 59 44 54.574219 44 52.234375 L 44 48 L 31 48 L 31 42 L 52.234375 42 C 56.535156 42 59 38.355469 59 32 C 59 25.644531 56.535156 22 52.234375 22 L 46 22 L 46 26.910156 C 46 30.210938 43.085938 33 39.636719 33 Z M 24.363281 33 "/>
<path style=" stroke:none;fill-rule:nonzero;fill:rgb(55.29412%,42.352942%,62.352943%);fill-opacity:1;" d="M 37.652344 40 C 37.097656 40 36.652344 39.550781 36.652344 39 L 36.652344 37 C 36.652344 36.449219 37.097656 36 37.652344 36 C 38.203125 36 38.652344 36.449219 38.652344 37 L 38.652344 39 C 38.652344 39.550781 38.203125 40 37.652344 40 Z M 42.21875 40 C 41.664062 40 41.21875 39.550781 41.21875 39 L 41.21875 37 C 41.21875 36.449219 41.664062 36 42.21875 36 C 42.769531 36 43.21875 36.449219 43.21875 37 L 43.21875 39 C 43.21875 39.550781 42.769531 40 42.21875 40 Z M 46.78125 40 C 46.230469 40 45.78125 39.550781 45.78125 39 L 45.78125 37 C 45.78125 36.449219 46.230469 36 46.78125 36 C 47.335938 36 47.78125 36.449219 47.78125 37 L 47.78125 39 C 47.78125 39.550781 47.335938 40 46.78125 40 Z M 51.347656 40 C 50.796875 40 50.347656 39.550781 50.347656 39 L 50.347656 37 C 50.347656 36.449219 50.796875 36 51.347656 36 C 51.902344 36 52.347656 36.449219 52.347656 37 L 52.347656 39 C 52.347656 39.550781 51.898438 40 51.347656 40 Z M 51.347656 40 "/>
<path style=" stroke:none;fill-rule:nonzero;fill:rgb(55.29412%,42.352942%,62.352943%);fill-opacity:1;" d="M 15.652344 28.082031 C 15.101562 28.082031 14.652344 27.636719 14.652344 27.082031 L 14.652344 25.082031 C 14.652344 24.53125 15.101562 24.082031 15.652344 24.082031 C 16.203125 24.082031 16.652344 24.53125 16.652344 25.082031 L 16.652344 27.082031 C 16.652344 27.636719 16.203125 28.082031 15.652344 28.082031 Z M 20.21875 28.082031 C 19.664062 28.082031 19.21875 27.636719 19.21875 27.082031 L 19.21875 25.082031 C 19.21875 24.53125 19.664062 24.082031 20.21875 24.082031 C 20.769531 24.082031 21.21875 24.53125 21.21875 25.082031 L 21.21875 27.082031 C 21.21875 27.636719 20.769531 28.082031 20.21875 28.082031 Z M 24.78125 28.082031 C 24.230469 28.082031 23.78125 27.636719 23.78125 27.082031 L 23.78125 25.082031 C 23.78125 24.53125 24.230469 24.082031 24.78125 24.082031 C 25.335938 24.082031 25.78125 24.53125 25.78125 25.082031 L 25.78125 27.082031 C 25.78125 27.636719 25.335938 28.082031 24.78125 28.082031 Z M 29.347656 28.082031 C 28.796875 28.082031 28.347656 27.636719 28.347656 27.082031 L 28.347656 25.082031 C 28.347656 24.53125 28.796875 24.082031 29.347656 24.082031 C 29.898438 24.082031 30.347656 24.53125 30.347656 25.082031 L 30.347656 27.082031 C 30.347656 27.636719 29.898438 28.082031 29.347656 28.082031 Z M 29.347656 28.082031 "/>
</g>
</svg>
