<svg xmlns="http://www.w3.org/2000/svg" enable-background="new 0 0 64 64" viewBox="0 0 64 64"><linearGradient id="a" x1="32" x2="32" y1="3.143" y2="58.346" gradientUnits="userSpaceOnUse"><stop offset="0" stop-color="#ffcc2f"/><stop offset="1" stop-color="#ff911c"/></linearGradient><path fill="url(#a)" d="M59,5H5C3.346,5,2,6.346,2,8v38c0,1.654,1.346,3,3,3h16.132l-2.667,4H17c-1.654,0-3,1.346-3,3
		s1.346,3,3,3h30c1.654,0,3-1.346,3-3s-1.346-3-3-3h-1.465l-2.667-4H59c1.654,0,3-1.346,3-3V8C62,6.346,60.654,5,59,5z M5,7h54
		c0.551,0,1,0.449,1,1v31H4V8C4,7.449,4.449,7,5,7z M48,56c0,0.551-0.449,1-1,1H17c-0.551,0-1-0.449-1-1s0.449-1,1-1h2h26h2
		C47.551,55,48,55.449,48,56z M43.131,53H20.869l2.667-4h16.93L43.131,53z M59,47H41H23H5c-0.551,0-1-0.449-1-1v-5h56v5
		C60,46.551,59.551,47,59,47z M31,44.5v-1c0-0.276,0.224-0.5,0.5-0.5h1c0.276,0,0.5,0.224,0.5,0.5v1c0,0.276-0.224,0.5-0.5,0.5h-1
		C31.224,45,31,44.776,31,44.5z M43,14H21c-1.654,0-3,1.346-3,3v16c0,1.654,1.346,3,3,3h22c1.654,0,3-1.346,3-3V17
		C46,15.346,44.654,14,43,14z M21,16h22c0.552,0,1,0.448,1,1v3H20v-3C20,16.448,20.448,16,21,16z M43,34H21c-0.552,0-1-0.448-1-1V22
		h24v11C44,33.552,43.552,34,43,34z M36,18.5v-1c0-0.276,0.224-0.5,0.5-0.5h1c0.276,0,0.5,0.224,0.5,0.5v1
		c0,0.276-0.224,0.5-0.5,0.5h-1C36.224,19,36,18.776,36,18.5z M40.5,19h1c0.276,0,0.5-0.224,0.5-0.5v-1c0-0.276-0.224-0.5-0.5-0.5
		h-1c-0.276,0-0.5,0.224-0.5,0.5v1C40,18.776,40.224,19,40.5,19z M31,24h-8c-0.553,0-1,0.447-1,1v6c0,0.553,0.447,1,1,1h8
		c0.553,0,1-0.447,1-1v-6C32,24.447,31.553,24,31,24z M30,30h-6v-4h6V30z M42,24.5v1c0,0.276-0.224,0.5-0.5,0.5h-7
		c-0.276,0-0.5-0.224-0.5-0.5v-1c0-0.276,0.224-0.5,0.5-0.5h7C41.776,24,42,24.224,42,24.5z M41.5,27h-7c-0.276,0-0.5,0.224-0.5,0.5
		v1c0,0.276,0.224,0.5,0.5,0.5h7c0.276,0,0.5-0.224,0.5-0.5v-1C42,27.224,41.776,27,41.5,27z M41.5,30h-7
		c-0.276,0-0.5,0.224-0.5,0.5v1c0,0.276,0.224,0.5,0.5,0.5h7c0.276,0,0.5-0.224,0.5-0.5v-1C42,30.224,41.776,30,41.5,30z"/></svg>